# xmcd
#
# Track frame offsets: 
#        150
#        9570
#        24115
#        43328
#        65618
#        81555
#        99970
#        125135
#        144275
#        163475
#        184108
#        201373
#        221723
#        240088
#        261930
#        280885
#        304188
#
# Disc length: 4402 seconds
#
# Revision: 4
# Processed by: cddbd v1.5.2PL0 Copyright (c) Steve Scherf et al.
# Submitted via: ExactAudioCopy v0.99pb4
#
DISCID=fa113011
DTITLE=Destiny's Child - The Writing's On The Wall
DYEAR=1999
DGENRE=R&B
TTITLE0=Intro (The Writing's On The Wall)
TTITLE1=So Good
TTITLE2=Bills, Bills, Bills
TTITLE3=Confessions (featuring Missy Elliott)
TTITLE4=Bug A Boo
TTITLE5=Temptation
TTITLE6=Now That She's Gone
TTITLE7=Where'd You Go
TTITLE8=Hey Ladies
TTITLE9=If You Leave (featuring Next)
TTITLE10=Jumpin, Jumpin
TTITLE11=Say My Name
TTITLE12=She Can't Love You
TTITLE13=Stay
TTITLE14=Sweet Sixteen
TTITLE15=Outro (Amazing Grace...Dedicated To Andretta Tillman)
TTITLE16=Software Application
EXTD=YEAR: 2001
EXTT0=
EXTT1=
EXTT2=
EXTT3=
EXTT4=
EXTT5=
EXTT6=
EXTT7=
EXTT8=
EXTT9=
EXTT10=
EXTT11=
EXTT12=
EXTT13=
EXTT14=
EXTT15=
EXTT16=
PLAYORDER=
